<svg
  width="10"
  height="15"
  viewBox="0 0 10 15"
  fill="none"
  xmlns="http://www.w3.org/2000/svg"
>
  <path
    d="M0.861328 7.76953C0.861328 7.55859 0.900391 7.36719 0.978516 7.19531C1.05664 7.01953 1.18164 6.84766 1.35352 6.67969L7.01367 1.14258C7.25586 0.896484 7.55664 0.773438 7.91602 0.773438C8.16211 0.773438 8.38477 0.833984 8.58398 0.955078C8.7832 1.07227 8.94336 1.23047 9.06445 1.42969C9.18555 1.62891 9.24609 1.8457 9.24609 2.08008C9.24609 2.44727 9.10352 2.77148 8.81836 3.05273L3.94336 7.75781L8.81836 12.4805C9.10352 12.7656 9.24609 13.0898 9.24609 13.4531C9.24609 13.6953 9.18555 13.916 9.06445 14.1152C8.94336 14.3145 8.7832 14.4727 8.58398 14.5898C8.38477 14.707 8.16211 14.7656 7.91602 14.7656C7.55664 14.7656 7.25586 14.6426 7.01367 14.3965L1.35352 8.85938C1.17773 8.6875 1.05078 8.51367 0.972656 8.33789C0.898438 8.16211 0.861328 7.97266 0.861328 7.76953Z"
    fill="white"
  />
</svg>

