<svg width="345" height="45" viewBox="0 0 345 45" fill="none" xmlns="http://www.w3.org/2000/svg">
<rect width="345" height="45" rx="5" fill="#FFDB5E"/>
<path d="M150.083 18.263H151.76C151.76 19.199 151.687 20.0917 151.539 20.941C151.401 21.7903 151.141 22.5963 150.759 23.359C150.378 24.1217 149.836 24.8367 149.134 25.504C148.432 26.1713 147.518 26.791 146.391 27.363L145.468 26.037C146.404 25.569 147.171 25.0707 147.769 24.542C148.376 24.0047 148.844 23.4327 149.173 22.826C149.511 22.2107 149.745 21.5433 149.875 20.824C150.014 20.1047 150.083 19.3247 150.083 18.484V18.263ZM146.222 18.263H151.097V19.641H146.222V18.263ZM150.122 21.214V22.54L145.806 22.956L145.585 21.487L150.122 21.214ZM153.216 17.093H154.958V29.131H153.216V17.093ZM154.516 21.708H156.635V23.125H154.516V21.708ZM162.042 18.263H163.719C163.719 19.199 163.646 20.0917 163.498 20.941C163.36 21.7903 163.1 22.5963 162.718 23.359C162.337 24.1217 161.795 24.8367 161.093 25.504C160.391 26.1713 159.477 26.791 158.35 27.363L157.427 26.037C158.363 25.569 159.13 25.0707 159.728 24.542C160.335 24.0047 160.803 23.4327 161.132 22.826C161.47 22.2107 161.704 21.5433 161.834 20.824C161.973 20.1047 162.042 19.3247 162.042 18.484V18.263ZM158.181 18.263H163.056V19.641H158.181V18.263ZM162.081 21.214V22.54L157.765 22.956L157.544 21.487L162.081 21.214ZM165.175 17.093H166.917V29.131H165.175V17.093ZM166.475 21.708H168.594V23.125H166.475V21.708ZM174.027 23.879H175.743V26.622H174.027V23.879ZM174.885 17.73C175.743 17.73 176.51 17.8687 177.186 18.146C177.871 18.4147 178.408 18.796 178.798 19.29C179.188 19.784 179.383 20.369 179.383 21.045C179.383 21.7123 179.188 22.2973 178.798 22.8C178.408 23.3027 177.871 23.6927 177.186 23.97C176.51 24.2387 175.743 24.373 174.885 24.373C174.036 24.373 173.269 24.2387 172.584 23.97C171.908 23.6927 171.371 23.3027 170.972 22.8C170.582 22.2973 170.387 21.7123 170.387 21.045C170.387 20.369 170.582 19.784 170.972 19.29C171.371 18.796 171.908 18.4147 172.584 18.146C173.269 17.8687 174.036 17.73 174.885 17.73ZM174.885 19.095C174.339 19.095 173.854 19.173 173.429 19.329C173.013 19.485 172.684 19.706 172.441 19.992C172.207 20.278 172.09 20.629 172.09 21.045C172.09 21.4523 172.207 21.8033 172.441 22.098C172.684 22.384 173.013 22.605 173.429 22.761C173.854 22.917 174.339 22.995 174.885 22.995C175.44 22.995 175.925 22.917 176.341 22.761C176.766 22.605 177.095 22.384 177.329 22.098C177.563 21.8033 177.68 21.4523 177.68 21.045C177.68 20.629 177.563 20.278 177.329 19.992C177.095 19.706 176.766 19.485 176.341 19.329C175.925 19.173 175.44 19.095 174.885 19.095ZM169.451 26.349H180.358V27.753H169.451V26.349ZM184.457 26.427H195.364V27.831H184.457V26.427ZM189.033 24.139H190.749V26.986H189.033V24.139ZM185.692 17.886H194.129V21.903H187.421V23.918H185.705V20.551H192.413V19.264H185.692V17.886ZM185.705 23.242H194.402V24.62H185.705V23.242ZM197.534 18.211H205.152V19.589H197.534V18.211ZM196.416 26.18H207.31V27.584H196.416V26.18ZM204.242 18.211H205.971V19.641C205.971 20.2043 205.962 20.7763 205.945 21.357C205.936 21.9377 205.902 22.5573 205.841 23.216C205.789 23.8747 205.685 24.62 205.529 25.452L203.8 25.296C203.956 24.5247 204.06 23.814 204.112 23.164C204.173 22.514 204.207 21.903 204.216 21.331C204.233 20.7503 204.242 20.187 204.242 19.641V18.211ZM216.643 17.119H218.372V25.764H216.643V17.119ZM210.351 27.558H218.684V28.949H210.351V27.558ZM210.351 24.906H212.08V28.13H210.351V24.906ZM211.82 17.886C212.435 17.886 212.99 18.016 213.484 18.276C213.978 18.536 214.368 18.8957 214.654 19.355C214.949 19.8143 215.096 20.343 215.096 20.941C215.096 21.5217 214.949 22.046 214.654 22.514C214.368 22.9733 213.978 23.3373 213.484 23.606C212.99 23.866 212.435 23.996 211.82 23.996C211.205 23.996 210.65 23.866 210.156 23.606C209.662 23.3373 209.268 22.9733 208.973 22.514C208.687 22.046 208.544 21.5217 208.544 20.941C208.544 20.343 208.687 19.8143 208.973 19.355C209.268 18.8957 209.662 18.536 210.156 18.276C210.65 18.016 211.205 17.886 211.82 17.886ZM211.82 19.368C211.525 19.368 211.257 19.433 211.014 19.563C210.771 19.6843 210.581 19.862 210.442 20.096C210.303 20.3213 210.234 20.603 210.234 20.941C210.234 21.2617 210.303 21.539 210.442 21.773C210.581 21.9983 210.771 22.176 211.014 22.306C211.257 22.4273 211.525 22.488 211.82 22.488C212.115 22.488 212.383 22.4273 212.626 22.306C212.869 22.176 213.059 21.9983 213.198 21.773C213.337 21.539 213.406 21.2617 213.406 20.941C213.406 20.603 213.337 20.3213 213.198 20.096C213.059 19.862 212.869 19.6843 212.626 19.563C212.383 19.433 212.115 19.368 211.82 19.368Z" fill="#3D1D1E"/>
<path d="M139 22.4292C139 25.4277 135.866 27.8585 132 27.8585C128.134 27.8585 125 25.4277 125 22.4292C125 19.4308 128.134 17 132 17C135.866 17 139 19.4308 139 22.4292Z" fill="#3E2723"/>
<path d="M126.582 29.3135C126.413 29.4025 126.253 29.1829 126.357 29.0029L128.588 25.121C128.657 25.0007 128.805 24.9884 128.884 25.0964L130.307 27.0587C130.386 27.1668 130.351 27.3345 130.238 27.394L126.582 29.3135Z" fill="#3E2723"/>
</svg>
