<svg width="4" height="7" viewBox="0 0 4 7" fill="none" xmlns="http://www.w3.org/2000/svg">
<path d="M3.64111 3.2373C3.64111 3.14941 3.62484 3.06966 3.59229 2.99805C3.55973 2.9248 3.50765 2.85319 3.43604 2.7832L1.07764 0.476074C0.976725 0.373535 0.8514 0.322266 0.70166 0.322266C0.599121 0.322266 0.506348 0.347493 0.42334 0.397949C0.340332 0.446777 0.2736 0.512695 0.223145 0.595703C0.172689 0.678711 0.147461 0.769043 0.147461 0.866699C0.147461 1.01969 0.206868 1.15479 0.325684 1.27197L2.35693 3.23242L0.325684 5.2002C0.206868 5.31901 0.147461 5.4541 0.147461 5.60547C0.147461 5.70638 0.172689 5.79834 0.223145 5.88135C0.2736 5.96436 0.340332 6.03027 0.42334 6.0791C0.506348 6.12793 0.599121 6.15234 0.70166 6.15234C0.8514 6.15234 0.976725 6.10107 1.07764 5.99854L3.43604 3.69141C3.50928 3.61979 3.56217 3.54736 3.59473 3.47412C3.62565 3.40088 3.64111 3.32194 3.64111 3.2373Z" fill="white"/>
</svg>
