<svg width="4" height="7" viewBox="0 0 4 7" fill="none" xmlns="http://www.w3.org/2000/svg">
<path d="M3.9375 3.2373C3.9375 3.14941 3.92122 3.06966 3.88867 2.99805C3.85612 2.9248 3.80404 2.85319 3.73242 2.7832L1.37402 0.476074C1.27311 0.373535 1.14779 0.322266 0.998047 0.322266C0.895508 0.322266 0.802734 0.347493 0.719727 0.397949C0.636719 0.446777 0.569987 0.512695 0.519531 0.595703C0.469076 0.678711 0.443848 0.769043 0.443848 0.866699C0.443848 1.01969 0.503255 1.15479 0.62207 1.27197L2.65332 3.23242L0.62207 5.2002C0.503255 5.31901 0.443848 5.4541 0.443848 5.60547C0.443848 5.70638 0.469076 5.79834 0.519531 5.88135C0.569987 5.96436 0.636719 6.03027 0.719727 6.0791C0.802734 6.12793 0.895508 6.15234 0.998047 6.15234C1.14779 6.15234 1.27311 6.10107 1.37402 5.99854L3.73242 3.69141C3.80566 3.61979 3.85856 3.54736 3.89111 3.47412C3.92204 3.40088 3.9375 3.32194 3.9375 3.2373Z" fill="#177DFA"/>
</svg>
